<?xml version="1.0" encoding="iso-8859-1"?>
<!-- Generator: Adobe Illustrator 19.0.0, SVG Export Plug-In . SVG Version: 6.00 Build 0)  -->
<svg version="1.1" id="Layer_1" xmlns="http://www.w3.org/2000/svg" xmlns:xlink="http://www.w3.org/1999/xlink" x="0px" y="0px"
	 viewBox="0 0 512 512" style="enable-background:new 0 0 512 512;" xml:space="preserve">
<g>
	<g>
		<path d="M373.333,32H138.667C62.208,32,0,94.208,0,170.667V256c0,76.459,62.208,138.667,138.667,138.667h32v74.667
			c0,4.309,2.603,8.213,6.592,9.856c1.301,0.555,2.709,0.811,4.075,0.811c2.773,0,5.504-1.088,7.531-3.115l82.219-82.219h102.251
			C449.792,394.667,512,332.459,512,256v-85.333C512,94.208,449.792,32,373.333,32z M490.667,256
			c0,64.704-52.651,117.333-117.333,117.333H266.667c-2.837,0-5.547,1.131-7.552,3.136L192,443.584V384
			c0-5.888-4.779-10.667-10.667-10.667h-42.667c-64.683,0-117.333-52.629-117.333-117.333v-85.333
			c0-64.704,52.651-117.333,117.333-117.333h234.667c64.683,0,117.333,52.629,117.333,117.333V256z"/>
	</g>
</g>
<g>
</g>
<g>
</g>
<g>
</g>
<g>
</g>
<g>
</g>
<g>
</g>
<g>
</g>
<g>
</g>
<g>
</g>
<g>
</g>
<g>
</g>
<g>
</g>
<g>
</g>
<g>
</g>
<g>
</g>
</svg>
